#!OML:ASF F:\VICON\USERDATA\INSTALL\rory3\rory3.ASF
:FULLY-SPECIFIED
:DEGREES
445
root 4.59121 16.2688 2.24686 15.9695 -8.76879 -2.71113
lowerback 7.62127 -0.622836 1.74527
upperback 1.41246 -0.694947 -0.168196
thorax -2.83502 -0.362058 -1.08515
lowerneck -14.3143 -0.0652029 -0.823683
upperneck 39.0022 0.622909 -1.54967
head 16.3986 -0.14348 -0.442877
rclavicle -1.0138e-014 1.63003e-014
rhumerus -45.9734 30.3734 -77.0419
rradius 92.5449
rwrist -17.9819
rhand -8.53839 -40.646
rfingers 7.12502
rthumb 17.3907 -69.8881
lclavicle -1.0138e-014 1.63003e-014
lhumerus -30.5773 -47.2158 72.4645
lradius 80.761
lwrist 44.0549
lhand -20.6519 -28.3128
lfingers 7.12502
lthumb 5.71043 1.59024
rfemur -67.3289 5.74467 14.1031
rtibia 35.5803
rfoot 38.7709 -0.587808
rtoes 7.83808
lfemur -44.1813 -2.00893 -26.65
ltibia 53.4258
lfoot -22.2877 7.17841
ltoes 12.0221
446
root 4.59174 16.2705 2.24087 16.1804 -8.73747 -2.65039
lowerback 7.47673 -0.626046 1.71412
upperback 1.44196 -0.704833 -0.172685
thorax -2.72403 -0.365632 -1.07278
lowerneck -14.3073 -0.0324749 -0.856684
upperneck 38.9893 0.692628 -1.57056
head 16.3909 -0.121985 -0.433564
rclavicle 1.53064e-014 -7.95139e-015
rhumerus -46.3203 30.487 -77.1946
rradius 92.1537
rwrist -17.5922
rhand -8.42834 -41.3347
rfingers 7.12502
rthumb 17.4967 -70.5673
lclavicle 1.53064e-014 -7.95139e-015
lhumerus -30.8309 -47.5041 72.5259
lradius 80.4661
lwrist 43.9419
lhand -20.7593 -28.916
lfingers 7.12502
lthumb 5.60672 0.989856
rfemur -67.5657 5.65302 14.0124
rtibia 35.5597
rfoot 38.7781 -0.0728756
rtoes 6.98646
lfemur -44.4656 -2.06185 -26.7039
ltibia 53.4667
lfoot -22.3408 7.12375
ltoes 11.8473
447
root 4.59205 16.2666 2.23745 16.3376 -8.75773 -2.66284
lowerback 7.47439 -0.584489 1.75696
upperback 1.43695 -0.646192 -0.168479
thorax -2.72645 -0.336887 -1.09823
lowerneck -14.4223 -0.0901021 -1.09836
upperneck 39.0652 0.569687 -1.27211
head 16.4567 -0.167401 -0.28122
rclavicle 4.1546e-014 -1.59028e-014
rhumerus -46.8144 30.5357 -77.3521
rradius 91.7832
rwrist -16.9573
rhand -8.72849 -41.2615
rfingers 7.12502
rthumb 17.2078 -70.5196
lclavicle 4.1546e-014 -1.59028e-014
lhumerus -31.2512 -47.801 72.736
lradius 80.2082
lwrist 43.7776
lhand -21.1803 -29.3467
lfingers 7.12502
lthumb 5.20029 0.569459
rfemur -67.7334 5.5957 14.0477
rtibia 35.5536
rfoot 38.714 0.514209
rtoes 5.67248
lfemur -44.6909 -2.1103 -26.6814
ltibia 53.5301
lfoot -22.3403 7.12689
ltoes 12.0029
448
root 4.59223 16.2599 2.2342 16.3959 -8.72804 -2.73766
lowerback 7.60996 -0.551525 1.88745
upperback 1.45136 -0.589067 -0.153601
thorax -2.78632 -0.309963 -1.16084
lowerneck -14.6673 -0.159245 -1.14759
upperneck 39.1585 0.460994 -1.20172
head 16.5671 -0.210162 -0.261746
rclavicle -2.22639e-014 7.15625e-015
rhumerus -47.2652 30.5232 -77.5142
rradius 91.3588
rwrist -16.2275
rhand -9.74684 -39.865
rfingers 7.12502
rthumb 16.2274 -69.2059
lclavicle -2.22639e-014 7.15625e-015
lhumerus -31.6947 -48.0531 72.9673
lradius 79.9486
lwrist 43.5643
lhand -21.2623 -29.3214
lfingers 7.12502
lthumb 5.12106 0.596695
rfemur -67.7948 5.57389 14.1264
rtibia 35.5367
rfoot 38.7539 0.995942
rtoes 4.80583
lfemur -44.8136 -2.18819 -26.5775
ltibia 53.5863
lfoot -22.2471 7.23143
ltoes 12.7553
449
root 4.59333 16.2536 2.23507 16.4213 -8.69613 -2.65423
lowerback 7.63137 -0.539829 1.89588
upperback 1.54394 -0.57491 -0.203114
thorax -2.70268 -0.301755 -1.21836
lowerneck -14.9597 -0.181936 -0.895182
upperneck 39.2572 0.471371 -1.50026
head 16.6957 -0.210586 -0.439419
rclavicle 6.16232e-015 1.31198e-014
rhumerus -47.5828 30.4423 -77.6556
rradius 91.0275
rwrist -15.6967
rhand -10.4303 -38.977
rfingers 7.12502
rthumb 15.5693 -68.3703
lclavicle 6.16232e-015 1.31198e-014
lhumerus -32.1006 -48.1274 73.0986
lradius 79.7261
lwrist 43.4353
lhand -21.0493 -29.1477
lfingers 7.12502
lthumb 5.32674 0.765393
rfemur -67.8548 5.45559 14.067
rtibia 35.5268
rfoot 38.8875 1.23671
rtoes 4.7119
lfemur -44.8728 -2.32533 -26.6476
ltibia 53.6337
lfoot -22.3206 7.31675
ltoes 13.725
450
root 4.59269 16.2509 2.2359 16.5451 -8.68342 -2.56654
lowerback 7.61983 -0.55721 1.84568
upperback 1.5805 -0.603618 -0.238847
thorax -2.65939 -0.315086 -1.22444
lowerneck -15.1838 -0.21538 -0.978336
upperneck 39.349 0.396707 -1.3596
head 16.8009 -0.235306 -0.377186
rclavicle -8.94531e-015 8.34896e-015
rhumerus -47.9675 30.5332 -77.8564
rradius 90.7664
rwrist -15.4072
rhand -9.90585 -39.4454
rfingers 7.12502
rthumb 16.0743 -68.7986
lclavicle -8.94531e-015 8.34896e-015
lhumerus -32.7579 -48.0196 73.365
lradius 79.5615
lwrist 43.4818
lhand -20.9954 -28.7867
lfingers 7.12502
lthumb 5.37876 1.12504
rfemur -68.02 5.38352 13.9507
rtibia 35.5392
rfoot 38.8746 1.00537
rtoes 4.73177
lfemur -45.0417 -2.46196 -26.7097
ltibia 53.6754
lfoot -22.4548 7.52367
ltoes 13.4658
451
root 4.58939 16.2482 2.23268 16.6614 -8.70049 -2.60998
lowerback 7.76292 -0.567958 1.8418
upperback 1.57201 -0.614269 -0.207289
thorax -2.74778 -0.321112 -1.1875
lowerneck -15.2159 -0.226718 -1.20738
upperneck 39.3165 0.362862 -1.12588
head 16.7902 -0.250748 -0.237668
rclavicle -3.16068e-014 -2.06736e-014
rhumerus -48.4129 30.7305 -78.0437
rradius 90.4293
rwrist -15.2371
rhand -9.17956 -40.0822
rfingers 7.12502
rthumb 16.7736 -69.3776
lclavicle -3.16068e-014 -2.06736e-014
lhumerus -33.307 -48.1444 73.5839
lradius 79.3411
lwrist 43.9083
lhand -21.0795 -28.5064
lfingers 7.12502
lthumb 5.29763 1.4074
rfemur -68.1932 5.4804 13.8993
rtibia 35.5931
rfoot 38.8075 0.719765
rtoes 4.72372
lfemur -45.2477 -2.48985 -26.6327
ltibia 53.7338
lfoot -22.4092 7.67799
ltoes 13.3253
452
root 4.58618 16.2391 2.22442 16.7535 -8.68026 -2.57198
lowerback 7.96044 -0.581676 1.77388
upperback 1.58106 -0.633786 -0.194349
thorax -2.84816 -0.331032 -1.13247
lowerneck -15.2895 -0.181616 -1.07199
upperneck 39.2369 0.497999 -1.39743
head 16.7681 -0.212286 -0.357774
rclavicle 1.19271e-015 -7.95139e-016
rhumerus -48.7902 30.7649 -78.1781
rradius 90.083
rwrist -15.2601
rhand -8.97577 -40.6572
rfingers 7.12502
rthumb 16.9698 -69.9359
lclavicle 1.19271e-015 -7.95139e-016
lhumerus -33.3993 -48.5261 73.4662
lradius 78.9993
lwrist 44.3887
lhand -21.0352 -28.4769
lfingers 7.12502
lthumb 5.34034 1.43583
rfemur -68.389 5.53264 13.7554
rtibia 35.6436
rfoot 38.9023 0.500704
rtoes 5.19154
lfemur -45.4757 -2.52506 -26.6483
ltibia 53.8392
lfoot -22.3385 7.62466
ltoes 13.7153
453
root 4.58578 16.231 2.21786 16.9133 -8.6419 -2.52898
lowerback 8.01167 -0.604385 1.74969
upperback 1.56749 -0.664535 -0.187153
thorax -2.89136 -0.346502 -1.10776
lowerneck -15.3168 -0.134457 -0.995825
upperneck 39.1601 0.602861 -1.54184
head 16.7354 -0.177377 -0.415817
rclavicle 7.35503e-015 -1.11319e-014
rhumerus -49.2541 30.8195 -78.3685
rradius 89.8664
rwrist -15.4059
rhand -9.3004 -40.9296
rfingers 7.12502
rthumb 16.6573 -70.2348
lclavicle 7.35503e-015 -1.11319e-014
lhumerus -33.6843 -48.7378 73.5137
lradius 78.6963
lwrist 44.542
lhand -21.2215 -28.6219
lfingers 7.12502
lthumb 5.16051 1.29531
rfemur -68.639 5.5126 13.6254
rtibia 35.6862
rfoot 38.9966 0.451113
rtoes 5.32348
lfemur -45.7617 -2.58912 -26.6772
ltibia 54.0046
lfoot -22.4298 7.65437
ltoes 13.6023
454
root 4.58532 16.222 2.21375 17.129 -8.80554 -2.60222
lowerback 7.9672 -0.528016 1.77296
upperback 1.55141 -0.561298 -0.163258
thorax -2.87985 -0.295422 -1.10716
lowerneck -15.1614 -0.127604 -1.12724
upperneck 39.0202 0.610514 -1.43392
head 16.6202 -0.176358 -0.340656
rclavicle 6.16232e-015 1.35174e-014
rhumerus -49.7037 30.9304 -78.5172
rradius 89.5899
rwrist -15.3787
rhand -9.62268 -40.7252
rfingers 7.12502
rthumb 16.347 -70.0562
lclavicle 6.16232e-015 1.35174e-014
lhumerus -34.2319 -48.711 73.8081
lradius 78.5354
lwrist 44.4508
lhand -21.4714 -28.9304
lfingers 7.12502
lthumb 4.91916 0.9925
rfemur -68.9646 5.64431 13.6369
rtibia 35.7283
rfoot 39.0683 0.586587
rtoes 4.9851
lfemur -46.1248 -2.50245 -26.6228
ltibia 54.2151
lfoot -22.5014 7.73187
ltoes 13.3415
455
root 4.58231 16.202 2.20898 17.4069 -9.07068 -2.67649
lowerback 7.89665 -0.401677 1.74298
upperback 1.54415 -0.397104 -0.147277
thorax -2.84241 -0.213404 -1.0911
lowerneck -15.0682 -0.145274 -1.18286
upperneck 38.9117 0.608898 -1.45403
head 16.5391 -0.185836 -0.338193
rclavicle -2.92213e-014 8.74653e-015
rhumerus -50.0072 30.9536 -78.5576
rradius 89.2385
rwrist -15.3059
rhand -9.35117 -41.2196
rfingers 7.12502
rthumb 16.6084 -70.529
lclavicle -2.92213e-014 8.74653e-015
lhumerus -34.6522 -48.6524 74.0204
lradius 78.3616
lwrist 44.3189
lhand -21.3185 -28.9296
lfingers 7.12502
lthumb 5.06679 0.989809
rfemur -69.4295 5.84352 13.6544
rtibia 35.7938
rfoot 39.2003 0.607406
rtoes 4.91708
lfemur -46.6461 -2.35191 -26.5798
ltibia 54.4668
lfoot -22.4784 7.71528
ltoes 13.3801
